<svg width="37" height="30" viewBox="0 0 37 30" fill="none" xmlns="http://www.w3.org/2000/svg">
<g filter="url(#filter0_d_521_1635)">
<path d="M23.767 18.723V16.3125H23.076C21.866 14.3083 19.1929 12.9153 16.0907 12.9153C12.9885 12.9153 10.3148 14.3083 9.10471 16.3125H8.41378V18.723C8.41378 21.9314 11.8507 24.5314 16.0907 24.5314C20.3307 24.5314 23.767 21.9351 23.767 18.723Z" fill="#E86124"/>
<path d="M10.682 18.723V16.3125H11.3729C12.4333 14.5568 14.6174 13.2708 17.2248 12.978C16.8483 12.9362 16.4696 12.9152 16.0907 12.9153C12.9878 12.9153 10.3148 14.3083 9.10471 16.3125H8.41378V18.723C8.41378 21.9314 11.8507 24.5314 16.0907 24.5314C16.4697 24.5317 16.8483 24.5105 17.2248 24.468C13.5224 24.0536 10.682 21.6401 10.682 18.723Z" fill="#DC4A26"/>
<path d="M16.0907 22.121C20.3306 22.121 23.7677 19.5204 23.7677 16.3125C23.7677 13.1046 20.3306 10.5041 16.0907 10.5041C11.8509 10.5041 8.41378 13.1046 8.41378 16.3125C8.41378 19.5204 11.8509 22.121 16.0907 22.121Z" fill="#F0E92D"/>
<path d="M16.0907 20.5157C19.1589 20.5157 21.6462 18.6339 21.6462 16.3126C21.6462 13.9913 19.1589 12.1095 16.0907 12.1095C13.0225 12.1095 10.5352 13.9913 10.5352 16.3126C10.5352 18.6339 13.0225 20.5157 16.0907 20.5157Z" fill="#EF8521"/>
<path d="M12.165 17.041C12.165 14.6998 13.9348 12.7273 16.3446 12.1138C16.2605 12.1138 16.1757 12.1086 16.0909 12.1086C13.0219 12.1086 10.5347 13.9905 10.5347 16.3118C10.5347 17.8057 11.567 19.1138 13.1155 19.8623C12.5019 19.0494 12.1684 18.0595 12.165 17.041Z" fill="#E86124"/>
<path d="M22.9564 15.2329V12.8217H22.2655C21.0547 10.8174 18.3824 9.42453 15.2795 9.42453C12.1765 9.42453 9.50423 10.8174 8.29343 12.8217H7.6025V15.2329C7.6025 18.4406 11.0395 21.0414 15.2795 21.0414C19.5195 21.0414 22.9564 18.4406 22.9564 15.2329Z" fill="#E86124"/>
<path d="M9.87145 15.2329V12.8217H10.5624C11.622 11.0667 13.8069 9.78068 16.4136 9.48794C16.037 9.4458 15.6584 9.42463 15.2795 9.42453C12.1765 9.42453 9.50423 10.8174 8.29343 12.8217H7.6025V15.2329C7.6025 18.4406 11.0395 21.0414 15.2795 21.0414C15.6584 21.0413 16.037 21.0201 16.4136 20.9779C12.7119 20.5635 9.87145 18.1493 9.87145 15.2329Z" fill="#DC4A26"/>
<path d="M15.2795 18.6301C19.5193 18.6301 22.9564 16.0296 22.9564 12.8217C22.9564 9.61382 19.5193 7.01331 15.2795 7.01331C11.0396 7.01331 7.6025 9.61382 7.6025 12.8217C7.6025 16.0296 11.0396 18.6301 15.2795 18.6301Z" fill="#F0E92D"/>
<path d="M15.2794 17.0249C18.3477 17.0249 20.8349 15.1431 20.8349 12.8218C20.8349 10.5004 18.3477 8.61863 15.2794 8.61863C12.2112 8.61863 9.72395 10.5004 9.72395 12.8218C9.72395 15.1431 12.2112 17.0249 15.2794 17.0249Z" fill="#EF8521"/>
<path d="M11.3543 13.551C11.3543 11.2098 13.1241 9.2373 15.5338 8.62379C15.449 8.62379 15.365 8.61863 15.2794 8.61863C12.2112 8.61863 9.72395 10.5005 9.72395 12.8218C9.72395 14.3157 10.7563 15.6238 12.3048 16.3723C11.6907 15.5597 11.3571 14.5696 11.3543 13.551Z" fill="#E86124"/>
<path d="M23.767 11.7098V9.29851H23.076C21.866 7.29429 19.1929 5.90136 16.0907 5.90136C12.9885 5.90136 10.3148 7.29429 9.10471 9.29851H8.41378V11.7098C8.41378 14.9174 11.8507 17.5175 16.0907 17.5175C20.3307 17.5175 23.767 14.9174 23.767 11.7098Z" fill="#E86124"/>
<path d="M10.682 11.7098V9.29852H11.3729C12.4333 7.54279 14.6174 6.25678 17.2248 5.96478C16.8483 5.92229 16.4697 5.90112 16.0907 5.90136C12.9878 5.90136 10.3148 7.29429 9.10471 9.29852H8.41378V11.7098C8.41378 14.9174 11.8507 17.5175 16.0907 17.5175C16.4696 17.5176 16.8483 17.4966 17.2248 17.4548C13.5224 17.0396 10.682 14.6254 10.682 11.7098Z" fill="#DC4A26"/>
<path d="M16.0907 15.1068C20.3306 15.1068 23.7677 12.5063 23.7677 9.29843C23.7677 6.09053 20.3306 3.49001 16.0907 3.49001C11.8509 3.49001 8.41378 6.09053 8.41378 9.29843C8.41378 12.5063 11.8509 15.1068 16.0907 15.1068Z" fill="#F0E92D"/>
<path d="M16.0907 13.5016C19.1589 13.5016 21.6462 11.6198 21.6462 9.29845C21.6462 6.97714 19.1589 5.09533 16.0907 5.09533C13.0225 5.09533 10.5352 6.97714 10.5352 9.29845C10.5352 11.6198 13.0225 13.5016 16.0907 13.5016Z" fill="#EF8521"/>
<path d="M12.165 10.027C12.165 7.68652 13.9348 5.71327 16.3446 5.09976C16.2605 5.09976 16.1757 5.09533 16.0909 5.09533C13.0219 5.09533 10.5347 6.97715 10.5347 9.29845C10.5347 10.7924 11.567 12.1005 13.1155 12.849C12.5018 12.0359 12.1682 11.0457 12.165 10.027Z" fill="#E86124"/>
<path d="M22.9564 8.21963V5.80837H22.2655C21.0547 3.80415 18.3824 2.41122 15.2795 2.41122C12.1765 2.41122 9.50423 3.80415 8.29343 5.80837H7.6025V8.21963C7.6025 11.4273 11.0395 14.0273 15.2795 14.0273C19.5195 14.0273 22.9564 11.4273 22.9564 8.21963Z" fill="#E86124"/>
<path d="M9.87145 8.21963V5.80837H10.5624C11.622 4.05265 13.8069 2.76664 16.4136 2.4739C16.037 2.43201 15.6584 2.41108 15.2795 2.41122C12.1765 2.41122 9.50423 3.80415 8.29343 5.80837H7.6025V8.21963C7.6025 11.4273 11.0395 14.0273 15.2795 14.0273C15.6584 14.0276 16.037 14.0064 16.4136 13.9639C12.7119 13.5495 9.87145 11.1353 9.87145 8.21963Z" fill="#DC4A26"/>
<path d="M15.2795 11.6168C19.5193 11.6168 22.9564 9.01631 22.9564 5.80841C22.9564 2.60051 19.5193 0 15.2795 0C11.0396 0 7.6025 2.60051 7.6025 5.80841C7.6025 9.01631 11.0396 11.6168 15.2795 11.6168Z" fill="#F0E92D"/>
<path d="M15.2794 10.0116C18.3477 10.0116 20.8349 8.12976 20.8349 5.80844C20.8349 3.48712 18.3477 1.60532 15.2794 1.60532C12.2112 1.60532 9.72395 3.48712 9.72395 5.80844C9.72395 8.12976 12.2112 10.0116 15.2794 10.0116Z" fill="#EF8521"/>
<path d="M11.3543 6.53691C11.3543 4.1957 13.1241 2.22318 15.5338 1.60968C15.449 1.60968 15.365 1.60451 15.2794 1.60451C12.2112 1.60451 9.72395 3.48633 9.72395 5.80763C9.72395 7.30158 10.7563 8.60972 12.3048 9.35817C11.6909 8.54546 11.3573 7.55543 11.3543 6.53691Z" fill="#E86124"/>
<path d="M37 19.8357V17.4244H36.3091C35.0983 15.4202 32.426 14.0273 29.323 14.0273C26.2201 14.0273 23.5471 15.4202 22.337 17.4244H21.6461V19.8357C21.6461 23.0434 25.083 25.6441 29.323 25.6441C33.563 25.6441 37 23.0411 37 19.8357Z" fill="#E86124"/>
<path d="M23.9143 19.8357V17.4244H24.6052C25.6656 15.6695 27.8497 14.3827 30.4571 14.0907C30.0806 14.0482 29.702 14.027 29.323 14.0273C26.2201 14.0273 23.5471 15.4202 22.337 17.4244H21.6461V19.8357C21.6461 23.0434 25.083 25.6441 29.323 25.6441C29.702 25.644 30.0806 25.6228 30.4571 25.5807C26.7554 25.1656 23.9143 22.7521 23.9143 19.8357Z" fill="#DC4A26"/>
<path d="M29.323 23.2329C33.5629 23.2329 37 20.6324 37 17.4245C37 14.2166 33.5629 11.6161 29.323 11.6161C25.0832 11.6161 21.6461 14.2166 21.6461 17.4245C21.6461 20.6324 25.0832 23.2329 29.323 23.2329Z" fill="#F0E92D"/>
<path d="M29.3233 21.6276C32.3915 21.6276 34.8788 19.7458 34.8788 17.4245C34.8788 15.1032 32.3915 13.2214 29.3233 13.2214C26.2551 13.2214 23.7678 15.1032 23.7678 17.4245C23.7678 19.7458 26.2551 21.6276 29.3233 21.6276Z" fill="#EF8521"/>
<path d="M25.3974 18.1531C25.3974 15.8126 27.1671 13.8393 29.5769 13.2258C29.4929 13.2258 29.4081 13.2214 29.3233 13.2214C26.255 13.2214 23.767 15.1032 23.767 17.4245C23.767 18.9185 24.7994 20.2266 26.3479 20.975C25.734 20.162 25.4005 19.1718 25.3974 18.1531Z" fill="#E86124"/>
<path d="M35.8284 15.82V13.4087H35.1375C33.9274 11.4045 31.2544 10.0116 28.1515 10.0116C25.0485 10.0116 22.3762 11.4045 21.1662 13.4087H20.4752V15.82C20.4752 19.0276 23.9122 21.6277 28.1515 21.6277C32.3907 21.6277 35.8284 19.0276 35.8284 15.82Z" fill="#E86124"/>
<path d="M22.7435 15.82V13.4087H23.4322C24.4925 11.653 26.6767 10.367 29.2841 10.0742C28.908 10.0324 28.5299 10.0115 28.1515 10.0116C25.0493 10.0116 22.3762 11.4045 21.1662 13.4087H20.4752V15.82C20.4752 19.0276 23.9122 21.6277 28.1515 21.6277C28.5306 21.6278 28.9095 21.6069 29.2863 21.565C25.5839 21.1498 22.7435 18.7356 22.7435 15.82Z" fill="#DC4A26"/>
<path d="M28.1514 19.217C32.3913 19.217 35.8284 16.6165 35.8284 13.4086C35.8284 10.2007 32.3913 7.60021 28.1514 7.60021C23.9115 7.60021 20.4744 10.2007 20.4744 13.4086C20.4744 16.6165 23.9115 19.217 28.1514 19.217Z" fill="#F0E92D"/>
<path d="M28.1514 17.6118C31.2196 17.6118 33.7069 15.73 33.7069 13.4087C33.7069 11.0873 31.2196 9.20553 28.1514 9.20553C25.0832 9.20553 22.5959 11.0873 22.5959 13.4087C22.5959 15.73 25.0832 17.6118 28.1514 17.6118Z" fill="#EF8521"/>
<path d="M24.2263 14.1372C24.2263 11.7967 25.996 9.82346 28.4058 9.20996C28.3217 9.20701 28.2369 9.20553 28.1514 9.20553C25.0831 9.20553 22.5959 11.0873 22.5959 13.4087C22.5959 14.9026 23.6282 16.2107 25.1768 16.9592C24.563 16.1461 24.2295 15.1559 24.2263 14.1372Z" fill="#E86124"/>
<path d="M13.6191 15.2905L11.8221 13.683L11.3612 14.1991C9.06053 13.7648 6.24075 14.8289 4.17238 17.1413C2.104 19.4538 1.35997 22.3775 2.04796 24.6126L1.58709 25.1287L3.38411 26.7362C5.77546 28.8747 10.0051 28.0466 12.8315 24.8861C15.658 21.7257 16.0104 17.4289 13.6191 15.2905Z" fill="#E86124"/>
<path d="M4.8957 25.0439L3.09868 23.4364L3.55955 22.9202C2.95784 20.9595 3.45337 18.476 4.97534 16.3361C4.69268 16.5894 4.42458 16.8585 4.17232 17.1421C2.10763 19.4552 1.35992 22.3775 2.04716 24.614L1.5863 25.1302L3.38331 26.7377C5.77467 28.8761 10.0043 28.048 12.8307 24.8876C13.0834 24.6062 13.32 24.3108 13.5394 24.0027C10.7624 26.4796 7.06952 26.9884 4.8957 25.0439Z" fill="#DC4A26"/>
<path d="M11.033 23.2778C13.8595 20.1176 14.2126 15.8221 11.8215 13.6835C9.43051 11.5449 5.2008 12.3731 2.37424 15.5333C-0.452319 18.6935 -0.805379 22.9891 1.58566 25.1277C3.9767 27.2663 8.2064 26.4381 11.033 23.2778Z" fill="#F0E92D"/>
<path d="M9.83656 22.2077C11.882 19.9208 12.1376 16.8123 10.4074 15.2648C8.67714 13.7172 5.61635 14.3166 3.57089 16.6035C1.52542 18.8905 1.26987 21.9989 3.00008 23.5465C4.7303 25.094 7.7911 24.4946 9.83656 22.2077Z" fill="#EF8521"/>
<path d="M4.62868 22.82C2.88401 21.2597 2.59127 18.6272 3.74381 16.4202C3.68531 16.4806 3.62779 16.5426 3.57126 16.606C1.52574 18.8919 1.26987 22.0015 3.00052 23.5493C4.11398 24.5455 5.779 24.6509 7.36955 23.9917C6.35305 23.9086 5.39109 23.4974 4.62868 22.82Z" fill="#E86124"/>
</g>
<defs>
<filter id="filter0_d_521_1635" x="0" y="0" width="37" height="29.9254" filterUnits="userSpaceOnUse" color-interpolation-filters="sRGB">
<feFlood flood-opacity="0" result="BackgroundImageFix"/>
<feColorMatrix in="SourceAlpha" type="matrix" values="0 0 0 0 0 0 0 0 0 0 0 0 0 0 0 0 0 0 127 0" result="hardAlpha"/>
<feOffset dy="2"/>
<feComposite in2="hardAlpha" operator="out"/>
<feColorMatrix type="matrix" values="0 0 0 0 0 0 0 0 0 0 0 0 0 0 0 0 0 0 0.15 0"/>
<feBlend mode="normal" in2="BackgroundImageFix" result="effect1_dropShadow_521_1635"/>
<feBlend mode="normal" in="SourceGraphic" in2="effect1_dropShadow_521_1635" result="shape"/>
</filter>
</defs>
</svg>
