<svg width="32" height="32" viewBox="0 0 32 32" fill="none" xmlns="http://www.w3.org/2000/svg">
<path d="M19.6267 11.72L13.9067 17.4533L11.7067 15.2533C11.5872 15.1137 11.4401 15.0004 11.2747 14.9204C11.1092 14.8403 10.9291 14.7954 10.7454 14.7883C10.5618 14.7812 10.3787 14.8121 10.2076 14.8791C10.0365 14.9462 9.8811 15.0478 9.75116 15.1778C9.62122 15.3077 9.51954 15.4631 9.45251 15.6342C9.38548 15.8053 9.35454 15.9884 9.36163 16.1721C9.36872 16.3557 9.41369 16.5359 9.49372 16.7013C9.57376 16.8667 9.68712 17.0138 9.82669 17.1333L12.96 20.28C13.0846 20.4036 13.2324 20.5013 13.3948 20.5677C13.5573 20.634 13.7312 20.6677 13.9067 20.6667C14.2565 20.6652 14.5917 20.5263 14.84 20.28L21.5067 13.6133C21.6317 13.4894 21.7309 13.3419 21.7985 13.1794C21.8662 13.0169 21.9011 12.8427 21.9011 12.6667C21.9011 12.4906 21.8662 12.3164 21.7985 12.1539C21.7309 11.9914 21.6317 11.8439 21.5067 11.72C21.2569 11.4717 20.9189 11.3323 20.5667 11.3323C20.2144 11.3323 19.8765 11.4717 19.6267 11.72ZM16 2.66666C13.3629 2.66666 10.7851 3.44864 8.59242 4.91373C6.39977 6.37881 4.6908 8.46119 3.68163 10.8975C2.67246 13.3339 2.40842 16.0148 2.92289 18.6012C3.43736 21.1876 4.70724 23.5634 6.57194 25.4281C8.43664 27.2928 10.8124 28.5627 13.3988 29.0771C15.9852 29.5916 18.6661 29.3276 21.1025 28.3184C23.5388 27.3092 25.6212 25.6002 27.0863 23.4076C28.5514 21.2149 29.3334 18.6371 29.3334 16C29.3334 14.249 28.9885 12.5152 28.3184 10.8975C27.6484 9.27987 26.6662 7.81001 25.4281 6.5719C24.19 5.33378 22.7201 4.35166 21.1025 3.6816C19.4848 3.01153 17.751 2.66666 16 2.66666ZM16 26.6667C13.8904 26.6667 11.8281 26.0411 10.0739 24.869C8.31982 23.6969 6.95265 22.031 6.14531 20.0819C5.33798 18.1329 5.12674 15.9882 5.53832 13.919C5.94989 11.8499 6.96579 9.94928 8.45755 8.45752C9.94931 6.96576 11.8499 5.94986 13.9191 5.53828C15.9882 5.1267 18.1329 5.33794 20.082 6.14527C22.0311 6.95261 23.697 8.31978 24.869 10.0739C26.0411 11.828 26.6667 13.8903 26.6667 16C26.6667 18.829 25.5429 21.5421 23.5425 23.5425C21.5421 25.5428 18.829 26.6667 16 26.6667Z" fill="#75839D"/>
</svg>
