<svg width="24" height="24" viewBox="0 0 24 24" fill="none" xmlns="http://www.w3.org/2000/svg">
<path fill-rule="evenodd" clip-rule="evenodd" d="M23.6362 0.0966563C23.7433 0.153234 23.8481 0.261047 23.9057 0.373969C23.9946 0.548063 24 0.648422 24 2.10938C24 3.57094 23.9946 3.67059 23.9056 3.84497C23.8449 3.96408 23.7453 4.06364 23.6262 4.12439C23.4518 4.21331 23.3522 4.21875 21.8906 4.21875C20.4291 4.21875 20.3294 4.21331 20.155 4.12439C19.8752 3.98161 19.7813 3.75839 19.7813 3.23625L19.7813 2.8125L18.3398 2.81494C16.9694 2.81728 16.9042 2.82131 17.0143 2.89697C18.9612 4.2345 20.2924 6.13008 20.8583 8.37075C20.9325 8.6647 21.0176 9.11109 21.0474 9.36277C21.0772 9.61444 21.1096 9.8625 21.1196 9.91406C21.1311 9.97388 21.2486 10.0649 21.4443 10.1655C22.1947 10.5514 22.6498 11.4625 22.5109 12.3006C22.3572 13.2282 21.6687 13.9192 20.7458 14.0722C19.876 14.2163 18.9322 13.7188 18.5579 12.9188C18.2661 12.2955 18.2696 11.6427 18.5678 11.052C18.7455 10.6998 19.1623 10.2753 19.4713 10.1314L19.7003 10.0247L19.6696 9.69403C19.4771 7.62225 18.1818 5.46595 16.3594 4.18331C15.8935 3.85538 14.9865 3.40116 14.4251 3.21459C14.1475 3.12234 13.9138 3.04688 13.9056 3.04688C13.8975 3.04688 13.823 3.15155 13.74 3.27947C13.3785 3.83742 12.6733 4.21763 12 4.21763C11.3267 4.21763 10.6215 3.83742 10.26 3.27947C10.177 3.15155 10.1025 3.04688 10.0944 3.04688C10.0862 3.04688 9.85247 3.12235 9.57492 3.2146C9.01355 3.40116 8.10652 3.85538 7.64063 4.18331C5.81822 5.46595 4.52292 7.62225 4.33036 9.69403L4.29966 10.0247L4.52874 10.1314C4.83774 10.2753 5.25445 10.6998 5.4322 11.052C6.07425 12.3239 5.29214 13.8366 3.87085 14.0722C2.50369 14.2987 1.25649 13.0354 1.49189 11.6625C1.60153 11.0232 2.01248 10.4449 2.55572 10.1655C2.75138 10.0649 2.86889 9.97388 2.88042 9.91406C2.89036 9.8625 2.92284 9.61444 2.95261 9.36277C3.08972 8.20322 3.5692 6.85238 4.22517 5.77767C4.86877 4.72327 5.88455 3.65869 6.89001 2.98486L7.14717 2.8125L5.68298 2.8125L4.21875 2.8125L4.21875 3.23625C4.21875 3.75839 4.12481 3.98161 3.84497 4.12439C3.67059 4.21331 3.57094 4.21875 2.10938 4.21875C0.647812 4.21875 0.548157 4.21331 0.373782 4.12439C0.254671 4.06364 0.15511 3.96408 0.0943607 3.84497C0.00543817 3.6706 3.12181e-07 3.57094 1.84407e-07 2.10938C5.66336e-08 0.647815 0.0054379 0.548158 0.0943604 0.373783C0.155109 0.254674 0.254671 0.155111 0.373781 0.0943614C0.548157 0.00543955 0.647812 2.04151e-06 2.10938 1.91374e-06C3.57094 1.78597e-06 3.67059 0.00543928 3.84497 0.0943611C4.12481 0.237142 4.21875 0.460361 4.21875 0.982502L4.21875 1.40625L7.11328 1.40606L10.0078 1.40592L10.1655 1.10091C10.5575 0.342845 11.4767 -0.108796 12.3297 0.0374541C12.9754 0.148173 13.5529 0.556313 13.8345 1.10091L13.9922 1.40592L16.8867 1.40606L19.7813 1.40625L19.7813 0.9825C19.7813 0.46036 19.8752 0.237141 20.155 0.0943597C20.3297 0.00525032 20.4268 9.40624e-05 21.9005 0.00206268C23.3614 0.00403131 23.4721 0.0100313 23.6362 0.0966563ZM21.1875 2.10938L21.1875 2.8125L21.8906 2.8125L22.5938 2.8125L22.5938 2.10938L22.5938 1.40625L21.8906 1.40625L21.1875 1.40625L21.1875 2.10938ZM11.6707 1.50061C11.4627 1.60674 11.2969 1.87678 11.2969 2.10938C11.2969 2.46605 11.6433 2.8125 12 2.8125C12.3567 2.8125 12.7031 2.46605 12.7031 2.10938C12.7031 1.88395 12.5372 1.60739 12.3393 1.50291C12.1132 1.38352 11.9016 1.38281 11.6707 1.50061ZM1.40625 2.10938L1.40625 2.8125L2.10938 2.8125L2.8125 2.8125L2.8125 2.10938L2.8125 1.40625L2.10938 1.40625L1.40625 1.40625L1.40625 2.10938ZM12.3235 5.75691C12.4557 5.82244 12.9697 6.56578 15.3286 10.1028C16.8937 12.4495 18.2088 14.4366 18.2512 14.5184C18.4067 14.8193 18.3229 15.0876 17.9446 15.4999C17.0414 16.4844 16.3847 17.5855 15.9853 18.7852C15.8105 19.3103 15.6094 20.17 15.6094 20.3923C15.6094 20.4559 15.7262 20.6203 15.9098 20.8149C16.421 21.3567 16.758 22.0293 16.872 22.7344C16.9794 23.3996 16.8874 23.7325 16.5481 23.9056C16.3666 23.9982 16.2803 24 12 24C7.71966 24 7.63336 23.9982 7.45191 23.9056C7.11263 23.7325 7.02061 23.3996 7.12805 22.7344C7.24195 22.0293 7.57903 21.3567 8.09021 20.8149C8.27377 20.6203 8.39063 20.4559 8.39063 20.3923C8.39063 20.17 8.18953 19.3103 8.01469 18.7852C7.61531 17.5855 6.95864 16.4844 6.05536 15.4999C5.67774 15.0883 5.59331 14.8192 5.748 14.52C5.78986 14.439 7.10489 12.452 8.67028 10.1044C11.1677 6.35888 11.5376 5.82591 11.6895 5.75391C11.9034 5.65252 12.1149 5.65355 12.3235 5.75691ZM12.7033 10.7695L12.7035 12.8203L13.0085 12.978C13.7578 13.3655 14.2121 14.2763 14.0734 15.1131C13.9197 16.0407 13.2312 16.7317 12.3083 16.8847C10.9412 17.1112 9.69399 15.8479 9.92939 14.475C10.0388 13.8372 10.4495 13.2583 10.9915 12.978L11.2965 12.8203L11.2967 10.7578L11.2968 8.69531L9.28411 11.7144L7.27144 14.7336L7.54589 15.066C8.51321 16.2375 9.28805 17.8204 9.62527 19.314L9.73608 19.8047L9.96572 19.7813C10.092 19.7684 11.0074 19.7578 12 19.7578C12.9926 19.7578 13.908 19.7684 14.0343 19.7813L14.2639 19.8047L14.3747 19.314C14.712 17.8205 15.4868 16.2375 16.4541 15.066L16.7285 14.7337L14.7275 11.7276C13.627 10.0741 12.7213 8.72077 12.7148 8.72006C12.7084 8.71936 12.7032 9.64163 12.7033 10.7695ZM20.1082 11.3912C19.9002 11.4974 19.7344 11.7674 19.7344 12C19.7344 12.2326 19.9002 12.5026 20.1082 12.6088C20.2099 12.6607 20.3581 12.7031 20.4375 12.7031C20.7942 12.7031 21.1406 12.3567 21.1406 12C21.1406 11.7746 20.9747 11.498 20.7768 11.3935C20.5507 11.2741 20.3391 11.2734 20.1082 11.3912ZM3.23316 11.3912C3.02517 11.4974 2.85938 11.7674 2.85938 12C2.85938 12.0794 2.90185 12.2276 2.95374 12.3293C3.05986 12.5373 3.32991 12.7031 3.5625 12.7031C3.79509 12.7031 4.06514 12.5373 4.17127 12.3293C4.29075 12.0951 4.2908 11.9049 4.17136 11.6708C3.99811 11.3313 3.58941 11.2095 3.23316 11.3912ZM11.6707 14.2037C11.4627 14.3099 11.2969 14.5799 11.2969 14.8125C11.2969 15.0451 11.4627 15.3151 11.6707 15.4213C11.7724 15.4732 11.9206 15.5156 12 15.5156C12.2326 15.5156 12.5026 15.3498 12.6088 15.1418C12.7283 14.9076 12.7283 14.7174 12.6089 14.4833C12.4356 14.1438 12.0269 14.022 11.6707 14.2037ZM10.1023 21.2127C9.71288 21.3142 9.37753 21.52 9.08222 21.839C8.87461 22.0632 8.625 22.4622 8.625 22.5698C8.625 22.583 10.1438 22.5938 12 22.5938C13.8563 22.5938 15.375 22.583 15.375 22.5698C15.375 22.4622 15.1254 22.0632 14.9178 21.839C14.6294 21.5275 14.2883 21.3146 13.918 21.2151C13.5368 21.1126 10.4939 21.1107 10.1023 21.2127Z" fill="white"/>
</svg>
