<svg width="32" height="32" viewBox="0 0 32 32" fill="none" xmlns="http://www.w3.org/2000/svg">
<path d="M16 20C17.4145 20 18.7711 19.4381 19.7713 18.4379C20.7715 17.4377 21.3334 16.0812 21.3334 14.6667V6.66671C21.3334 5.25222 20.7715 3.89567 19.7713 2.89547C18.7711 1.89528 17.4145 1.33337 16 1.33337C14.5856 1.33337 13.229 1.89528 12.2288 2.89547C11.2286 3.89567 10.6667 5.25222 10.6667 6.66671V14.6667C10.6667 16.0812 11.2286 17.4377 12.2288 18.4379C13.229 19.4381 14.5856 20 16 20ZM13.3334 6.66671C13.3334 5.95946 13.6143 5.28119 14.1144 4.78109C14.6145 4.28099 15.2928 4.00004 16 4.00004C16.7073 4.00004 17.3856 4.28099 17.8857 4.78109C18.3858 5.28119 18.6667 5.95946 18.6667 6.66671V14.6667C18.6667 15.374 18.3858 16.0522 17.8857 16.5523C17.3856 17.0524 16.7073 17.3334 16 17.3334C15.2928 17.3334 14.6145 17.0524 14.1144 16.5523C13.6143 16.0522 13.3334 15.374 13.3334 14.6667V6.66671ZM26.6667 14.6667C26.6667 14.3131 26.5262 13.9739 26.2762 13.7239C26.0261 13.4739 25.687 13.3334 25.3334 13.3334C24.9798 13.3334 24.6406 13.4739 24.3906 13.7239C24.1405 13.9739 24 14.3131 24 14.6667C24 16.7884 23.1572 18.8233 21.6569 20.3236C20.1566 21.8239 18.1218 22.6667 16 22.6667C13.8783 22.6667 11.8435 21.8239 10.3432 20.3236C8.8429 18.8233 8.00004 16.7884 8.00004 14.6667C8.00004 14.3131 7.85956 13.9739 7.60952 13.7239C7.35947 13.4739 7.02033 13.3334 6.66671 13.3334C6.31309 13.3334 5.97395 13.4739 5.7239 13.7239C5.47385 13.9739 5.33337 14.3131 5.33337 14.6667C5.33573 17.2631 6.285 19.7695 8.00324 21.716C9.72147 23.6625 12.0907 24.9155 14.6667 25.24V28H12C11.6464 28 11.3073 28.1405 11.0572 28.3906C10.8072 28.6406 10.6667 28.9798 10.6667 29.3334C10.6667 29.687 10.8072 30.0261 11.0572 30.2762C11.3073 30.5262 11.6464 30.6667 12 30.6667H20C20.3537 30.6667 20.6928 30.5262 20.9429 30.2762C21.1929 30.0261 21.3334 29.687 21.3334 29.3334C21.3334 28.9798 21.1929 28.6406 20.9429 28.3906C20.6928 28.1405 20.3537 28 20 28H17.3334V25.24C19.9094 24.9155 22.2786 23.6625 23.9968 21.716C25.7151 19.7695 26.6644 17.2631 26.6667 14.6667Z" fill="#4D90FF"/>
</svg>
