<svg width="44" height="44" viewBox="0 0 44 44" fill="none" xmlns="http://www.w3.org/2000/svg">
<path d="M40.8091 19.3129H24.687V3.19083C24.687 1.57862 23.6122 0.503816 22 0.503816C20.3877 0.503816 19.3129 1.57862 19.3129 3.19083V19.3129H3.19083C1.57862 19.3129 0.503816 20.3877 0.503816 22C0.503816 23.6122 1.57862 24.687 3.19083 24.687H19.3129V40.8091C19.3129 42.4213 20.3877 43.4961 22 43.4961C23.6122 43.4961 24.687 42.4213 24.687 40.8091V24.687H40.8091C42.4213 24.687 43.4961 23.6122 43.4961 22C43.4961 20.3877 42.4213 19.3129 40.8091 19.3129Z" fill="#0061FF" stroke="white"/>
</svg>
