<svg width="30" height="30" viewBox="0 0 30 30" fill="none" xmlns="http://www.w3.org/2000/svg">
<path d="M12.37 20.305C12.245 20.305 12.125 20.26 12.025 20.17C11.825 19.98 11.815 19.665 12.005 19.465L26.125 4.54999C26.36 4.30499 26.355 3.92499 26.115 3.68499C25.875 3.44499 25.5 3.43999 25.255 3.67499L9.93497 18.18C9.73497 18.37 9.41997 18.36 9.22997 18.16C9.03997 17.96 9.04997 17.645 9.24997 17.455L24.565 2.94999C25.205 2.33999 26.195 2.34999 26.82 2.97499C27.445 3.59999 27.46 4.59499 26.85 5.23999L12.735 20.15C12.635 20.25 12.5 20.305 12.37 20.305Z" fill="#75839D" stroke="#75839D" stroke-width="0.5"/>
<path d="M3.44006 27.5C3.38506 27.5 3.33006 27.49 3.27506 27.47C3.11006 27.41 2.99006 27.275 2.95506 27.105C2.91006 26.9 1.88506 22.08 4.33006 19.635C5.81506 18.15 7.70006 17.28 9.43006 17.31C10.5051 17.33 11.4151 17.71 12.0601 18.405C13.0801 19.505 13.3601 20.855 12.8551 22.215C12.2751 23.77 10.7701 24.975 9.19505 25.145C6.18005 25.475 3.78006 27.37 3.75506 27.385C3.66006 27.465 3.55006 27.5 3.44006 27.5ZM9.33505 18.315C7.93006 18.315 6.29006 19.09 5.03006 20.345C3.49006 21.885 3.63006 24.76 3.80006 26.13C4.78006 25.49 6.74006 24.41 9.08005 24.155C10.2751 24.025 11.4651 23.06 11.9151 21.865C12.1751 21.17 12.2851 20.12 11.3251 19.085C10.8701 18.595 10.2051 18.325 9.41006 18.31C9.38506 18.315 9.36005 18.315 9.33505 18.315Z" fill="#75839D" stroke="#75839D" stroke-width="0.5"/>
</svg>
