<svg width="32" height="32" viewBox="0 0 32 32" fill="none" xmlns="http://www.w3.org/2000/svg">
<path d="M30.6554 5.26696C30.6555 5.03145 30.5933 4.80011 30.4749 4.59649C30.3566 4.39287 30.1864 4.22425 29.9817 4.1078C29.777 3.99136 29.5451 3.93124 29.3096 3.93358C29.0741 3.93592 28.8434 4.00063 28.6411 4.12112C27.8606 4.58564 27.0204 4.94137 26.1437 5.17845C24.8917 4.1041 23.2948 3.51619 21.6451 3.5222C19.8352 3.52428 18.0969 4.22966 16.7973 5.48938C15.4978 6.74909 14.7386 8.46455 14.6802 10.2735C11.1122 9.70452 7.8784 7.84221 5.59549 5.04169C5.45793 4.87481 5.28227 4.74345 5.0833 4.65869C4.88433 4.57393 4.6679 4.53826 4.45226 4.55469C4.23674 4.57244 4.02879 4.64242 3.84638 4.75858C3.66398 4.87473 3.51261 5.03357 3.40538 5.22136C2.85542 6.18111 2.53955 7.25704 2.48345 8.36177C2.42734 9.4665 2.63256 10.5689 3.08246 11.5794L3.07986 11.582C2.87766 11.7066 2.71078 11.8809 2.5952 12.0884C2.47962 12.2958 2.41919 12.5295 2.4197 12.7669C2.41725 12.9628 2.429 13.1587 2.45486 13.3529C2.59104 15.0306 3.33457 16.6009 4.54601 17.7695C4.46382 17.9261 4.41367 18.0975 4.39846 18.2736C4.38326 18.4498 4.40332 18.6272 4.45746 18.7956C4.98561 20.4411 6.10879 21.8303 7.60721 22.6914C6.08486 23.2801 4.4411 23.4853 2.82074 23.2891C2.52084 23.2514 2.21705 23.3168 1.9592 23.4746C1.70136 23.6323 1.50478 23.873 1.40169 24.1571C1.29861 24.4412 1.29515 24.752 1.39189 25.0383C1.48862 25.3247 1.6798 25.5697 1.93407 25.7331C4.72087 27.528 7.96564 28.4822 11.2804 28.4818C15.0394 28.5241 18.7071 27.3229 21.7127 25.0651C24.7184 22.8072 26.8937 19.6194 27.9002 15.9974C28.3709 14.4195 28.6113 12.782 28.6138 11.1354C28.6138 11.0482 28.6138 10.9584 28.6124 10.8685C29.3086 10.1178 29.8479 9.23559 30.1987 8.27372C30.5495 7.31184 30.7047 6.28962 30.6554 5.26696ZM26.2465 9.54951C26.0263 9.80997 25.9149 10.1452 25.9353 10.4857C25.9484 10.7057 25.947 10.927 25.947 11.1354C25.9443 12.5268 25.7404 13.9105 25.3416 15.2435C24.5196 18.3254 22.6871 21.0422 20.1377 22.959C17.5883 24.8757 14.4693 25.8815 11.2804 25.8151C10.1349 25.8155 8.99339 25.6809 7.87939 25.4141C9.29994 24.9563 10.6282 24.2505 11.8026 23.3295C12.0189 23.1591 12.1772 22.9261 12.2558 22.6622C12.3343 22.3984 12.3293 22.1167 12.2415 21.8558C12.1536 21.5949 11.9871 21.3676 11.7649 21.205C11.5427 21.0425 11.2757 20.9527 11.0004 20.9479C9.89221 20.9307 8.83394 20.484 8.04861 19.7019C8.24783 19.6641 8.44575 19.6172 8.64237 19.5612C8.93038 19.4792 9.18242 19.3027 9.35791 19.0601C9.5334 18.8174 9.62213 18.5228 9.6098 18.2236C9.59747 17.9244 9.4848 17.638 9.28995 17.4107C9.09509 17.1833 8.82938 17.0281 8.53559 16.9701C7.89231 16.843 7.28699 16.5694 6.76668 16.1703C6.24637 15.7713 5.82509 15.2576 5.53559 14.6693C5.77657 14.7022 6.01907 14.7226 6.26215 14.7305C6.55093 14.7349 6.83361 14.6473 7.06932 14.4804C7.30503 14.3135 7.48155 14.0759 7.57335 13.8021C7.66133 13.5258 7.6568 13.2283 7.56046 12.9548C7.46412 12.6813 7.28122 12.4467 7.0395 12.2865C6.45303 11.8958 5.97262 11.3657 5.64131 10.7438C5.30999 10.1218 5.13811 9.42738 5.14106 8.72269C5.14106 8.63416 5.14366 8.54561 5.14887 8.45837C8.13722 11.2454 12.0133 12.8883 16.0942 13.0977C16.3002 13.1058 16.5053 13.067 16.6941 12.9842C16.8829 12.9014 17.0505 12.7768 17.1841 12.6198C17.3163 12.4613 17.4099 12.2742 17.4576 12.0734C17.5053 11.8725 17.5056 11.6633 17.4587 11.4623C17.3825 11.1441 17.3436 10.8181 17.3428 10.4909C17.3441 9.3503 17.7977 8.25675 18.6042 7.45021C19.4108 6.64367 20.5043 6.19003 21.645 6.18883C22.2318 6.18726 22.8126 6.30736 23.3507 6.54156C23.8888 6.77575 24.3725 7.11896 24.7713 7.54951C24.925 7.71495 25.1186 7.8383 25.3335 7.90782C25.5484 7.97734 25.7776 7.99073 25.9991 7.94669C26.5468 7.8401 27.0867 7.69655 27.615 7.51701C27.2546 8.25431 26.7941 8.93828 26.2465 9.54951Z" fill="#0061FF"/>
</svg>
