<svg width="32" height="32" viewBox="0 0 32 32" fill="none" xmlns="http://www.w3.org/2000/svg">
<path d="M22.6667 8H9.33333C8.97971 8 8.64057 8.14048 8.39052 8.39052C8.14048 8.64057 8 8.97971 8 9.33333C8 9.68696 8.14048 10.0261 8.39052 10.2761C8.64057 10.5262 8.97971 10.6667 9.33333 10.6667H14.6667V22.6667C14.6667 23.0203 14.8071 23.3594 15.0572 23.6095C15.3072 23.8595 15.6464 24 16 24C16.3536 24 16.6928 23.8595 16.9428 23.6095C17.1929 23.3594 17.3333 23.0203 17.3333 22.6667V10.6667H22.6667C23.0203 10.6667 23.3594 10.5262 23.6095 10.2761C23.8595 10.0261 24 9.68696 24 9.33333C24 8.97971 23.8595 8.64057 23.6095 8.39052C23.3594 8.14048 23.0203 8 22.6667 8Z" fill="#75839D"/>
</svg>
