<svg width="24" height="24" viewBox="0 0 24 24" fill="none" xmlns="http://www.w3.org/2000/svg">
<path d="M12 21C11.9962 20.1221 11.7613 19.2606 11.3189 18.5023C10.8766 17.744 10.2423 17.1155 9.48 16.68C9.77983 16.228 9.9515 15.7032 9.97675 15.1613C10.002 14.6195 9.87988 14.081 9.62338 13.6031C9.36689 13.1251 8.98562 12.7257 8.52014 12.4472C8.05467 12.1688 7.52241 12.0217 6.98 12.0217C6.43759 12.0217 5.90533 12.1688 5.43986 12.4472C4.97438 12.7257 4.59311 13.1251 4.33662 13.6031C4.08012 14.081 3.958 14.6195 3.98325 15.1613C4.0085 15.7032 4.18017 16.228 4.48 16.68C3.72511 17.1205 3.09888 17.7512 2.66373 18.5092C2.22859 19.2672 1.99974 20.126 2 21V22H12V21Z" fill="#75839D"/>
<path d="M12 1.99999C10.6868 1.99999 9.38642 2.25865 8.17317 2.7612C6.95991 3.26375 5.85752 4.00034 4.92893 4.92893C3.29046 6.5674 2.27928 8.7159 2.04997 11.0013C1.99481 11.551 2.44787 12 3.00035 12C3.55255 12 3.99386 11.5508 4.06307 11.003C4.20997 9.84005 4.61123 8.71934 5.24314 7.72247C6.05414 6.44307 7.2117 5.42022 8.58119 4.77288C9.95069 4.12553 11.4758 3.88031 12.9792 4.06572C14.4826 4.25113 15.9025 4.85956 17.0736 5.82025C18.2448 6.78093 19.1192 8.05438 19.595 9.49248C20.0709 10.9306 20.1286 12.4742 19.7616 13.9439C19.3946 15.4135 18.6179 16.7488 17.5218 17.7943C16.6744 18.6026 15.6631 19.2121 14.5614 19.5844C14.0233 19.7663 13.6578 20.3005 13.7666 20.858C13.874 21.4092 14.4046 21.7787 14.9455 21.6275C17.0344 21.0435 18.8868 19.7926 20.2112 18.0519C21.7405 16.0419 22.4526 13.5276 22.2044 11.0142C21.9562 8.50072 20.7662 6.17428 18.8733 4.50217C16.9804 2.83006 14.5249 1.93615 12 1.99999Z" fill="#75839D"/>
<path d="M12 6C11.4477 6 11 6.44772 11 7V11.5834C11 12.1127 11.2099 12.6205 11.5836 12.9954L13.5812 14.999C13.9725 15.3915 14.608 15.392 14.9999 15.0001C15.3919 14.6081 15.3913 13.9724 14.9986 13.5812L13.5884 12.1762C13.2117 11.8009 13 11.2911 13 10.7594V7C13 6.44772 12.5523 6 12 6Z" fill="#75839D"/>
</svg>
