<svg width="20" height="20" viewBox="0 0 20 20" fill="none" xmlns="http://www.w3.org/2000/svg">
<path d="M10.0002 12.4999C10.8842 12.4999 11.7321 12.1487 12.3572 11.5236C12.9823 10.8985 13.3335 10.0506 13.3335 9.16658V4.16658C13.3335 3.28253 12.9823 2.43468 12.3572 1.80956C11.7321 1.18444 10.8842 0.833252 10.0002 0.833252C9.11611 0.833252 8.26826 1.18444 7.64314 1.80956C7.01802 2.43468 6.66683 3.28253 6.66683 4.16658V9.16658C6.66683 10.0506 7.01802 10.8985 7.64314 11.5236C8.26826 12.1487 9.11611 12.4999 10.0002 12.4999ZM8.3335 4.16658C8.3335 3.72456 8.50909 3.30063 8.82165 2.98807C9.13421 2.67551 9.55814 2.49992 10.0002 2.49992C10.4422 2.49992 10.8661 2.67551 11.1787 2.98807C11.4912 3.30063 11.6668 3.72456 11.6668 4.16658V9.16658C11.6668 9.60861 11.4912 10.0325 11.1787 10.3451C10.8661 10.6577 10.4422 10.8333 10.0002 10.8333C9.55814 10.8333 9.13421 10.6577 8.82165 10.3451C8.50909 10.0325 8.3335 9.60861 8.3335 9.16658V4.16658ZM16.6668 9.16658C16.6668 8.94557 16.579 8.73361 16.4228 8.57733C16.2665 8.42105 16.0545 8.33325 15.8335 8.33325C15.6125 8.33325 15.4005 8.42105 15.2442 8.57733C15.088 8.73361 15.0002 8.94557 15.0002 9.16658C15.0002 10.4927 14.4734 11.7644 13.5357 12.7021C12.598 13.6398 11.3262 14.1666 10.0002 14.1666C8.67408 14.1666 7.40231 13.6398 6.46463 12.7021C5.52695 11.7644 5.00016 10.4927 5.00016 9.16658C5.00016 8.94557 4.91237 8.73361 4.75608 8.57733C4.5998 8.42105 4.38784 8.33325 4.16683 8.33325C3.94582 8.33325 3.73385 8.42105 3.57757 8.57733C3.42129 8.73361 3.3335 8.94557 3.3335 9.16658C3.33497 10.7893 3.92826 12.3558 5.00216 13.5724C6.07606 14.789 7.55681 15.5721 9.16683 15.7749V17.4999H7.50016C7.27915 17.4999 7.06719 17.5877 6.91091 17.744C6.75463 17.9003 6.66683 18.1122 6.66683 18.3333C6.66683 18.5543 6.75463 18.7662 6.91091 18.9225C7.06719 19.0788 7.27915 19.1666 7.50016 19.1666H12.5002C12.7212 19.1666 12.9331 19.0788 13.0894 18.9225C13.2457 18.7662 13.3335 18.5543 13.3335 18.3333C13.3335 18.1122 13.2457 17.9003 13.0894 17.744C12.9331 17.5877 12.7212 17.4999 12.5002 17.4999H10.8335V15.7749C12.4435 15.5721 13.9243 14.789 14.9982 13.5724C16.0721 12.3558 16.6654 10.7893 16.6668 9.16658Z" fill="#BAC1CE"/>
</svg>
