<svg width="50" height="50" viewBox="0 0 50 50" fill="none" xmlns="http://www.w3.org/2000/svg">
<path d="M25 4.16669C13.5416 4.16669 4.16663 13.5417 4.16663 25C4.16663 36.4584 13.5416 45.8334 25 45.8334C36.4583 45.8334 45.8333 36.4584 45.8333 25C45.8333 13.5417 36.4583 4.16669 25 4.16669ZM33.3333 27.0834H27.0833V33.3334C27.0833 34.5834 26.25 35.4167 25 35.4167C23.75 35.4167 22.9166 34.5834 22.9166 33.3334V27.0834H16.6666C15.4166 27.0834 14.5833 26.25 14.5833 25C14.5833 23.75 15.4166 22.9167 16.6666 22.9167H22.9166V16.6667C22.9166 15.4167 23.75 14.5834 25 14.5834C26.25 14.5834 27.0833 15.4167 27.0833 16.6667V22.9167H33.3333C34.5833 22.9167 35.4166 23.75 35.4166 25C35.4166 26.25 34.5833 27.0834 33.3333 27.0834Z" fill="#0061FF"/>
</svg>
