<svg width="32" height="32" viewBox="0 0 32 32" fill="none" xmlns="http://www.w3.org/2000/svg">
<path d="M25.3333 8.66666H23.6266L23.2 7.33332C22.9234 6.55096 22.4103 5.87399 21.7318 5.3962C21.0534 4.91841 20.2431 4.66346 19.4133 4.66666H12.5866C11.7487 4.66822 10.9324 4.9329 10.253 5.42333C9.57356 5.91376 9.0653 6.60517 8.79996 7.39999L8.37329 8.73332H6.66663C5.60576 8.73332 4.58834 9.15475 3.8382 9.90489C3.08805 10.655 2.66663 11.6725 2.66663 12.7333V23.4C2.66663 24.4609 3.08805 25.4783 3.8382 26.2284C4.58834 26.9786 5.60576 27.4 6.66663 27.4H25.3333C26.3942 27.4 27.4116 26.9786 28.1617 26.2284C28.9119 25.4783 29.3333 24.4609 29.3333 23.4V12.7333C29.3421 12.2025 29.2452 11.6751 29.0482 11.1821C28.8511 10.6891 28.5579 10.2402 28.1856 9.8617C27.8132 9.48318 27.3693 9.18256 26.8796 8.97739C26.3899 8.77221 25.8642 8.66658 25.3333 8.66666ZM26.6666 23.3333C26.6666 23.6869 26.5262 24.0261 26.2761 24.2761C26.0261 24.5262 25.6869 24.6667 25.3333 24.6667H6.66663C6.313 24.6667 5.97387 24.5262 5.72382 24.2761C5.47377 24.0261 5.33329 23.6869 5.33329 23.3333V12.6667C5.33329 12.313 5.47377 11.9739 5.72382 11.7238C5.97387 11.4738 6.313 11.3333 6.66663 11.3333H9.33329C9.62405 11.3485 9.91178 11.2681 10.1525 11.1044C10.3933 10.9407 10.5739 10.7026 10.6666 10.4267L11.3866 8.23999C11.4761 7.97516 11.6465 7.74514 11.8738 7.58244C12.1011 7.41975 12.3738 7.3326 12.6533 7.33332H19.48C19.7595 7.3326 20.0322 7.41975 20.2595 7.58244C20.4868 7.74514 20.6572 7.97516 20.7466 8.23999L21.4666 10.4267C21.5522 10.681 21.7125 10.9036 21.9266 11.0653C22.1407 11.2271 22.3986 11.3205 22.6666 11.3333H25.3333C25.6869 11.3333 26.0261 11.4738 26.2761 11.7238C26.5262 11.9739 26.6666 12.313 26.6666 12.6667V23.3333ZM16 11.3333C14.9451 11.3333 13.914 11.6461 13.0369 12.2322C12.1599 12.8182 11.4763 13.6511 11.0726 14.6257C10.6689 15.6002 10.5633 16.6726 10.7691 17.7071C10.9749 18.7417 11.4828 19.692 12.2287 20.4379C12.9746 21.1838 13.9249 21.6917 14.9595 21.8975C15.994 22.1033 17.0664 21.9977 18.0409 21.594C19.0155 21.1903 19.8484 20.5068 20.4345 19.6297C21.0205 18.7526 21.3333 17.7215 21.3333 16.6667C21.3333 15.2522 20.7714 13.8956 19.7712 12.8954C18.771 11.8952 17.4144 11.3333 16 11.3333ZM16 19.3333C15.4725 19.3333 14.957 19.1769 14.5184 18.8839C14.0799 18.5909 13.7381 18.1744 13.5363 17.6871C13.3344 17.1999 13.2816 16.6637 13.3845 16.1464C13.4874 15.6291 13.7414 15.154 14.1143 14.781C14.4873 14.4081 14.9624 14.1541 15.4797 14.0512C15.997 13.9483 16.5332 14.0011 17.0204 14.203C17.5077 14.4048 17.9242 14.7466 18.2172 15.1851C18.5102 15.6237 18.6666 16.1392 18.6666 16.6667C18.6666 17.3739 18.3857 18.0522 17.8856 18.5523C17.3855 19.0524 16.7072 19.3333 16 19.3333Z" fill="#75839D" stroke="white"/>
</svg>
