<svg width="16" height="16" viewBox="0 0 16 16" fill="none" xmlns="http://www.w3.org/2000/svg">
<path d="M12.6667 7.33334H8.66669V3.33334C8.66669 3.15653 8.59645 2.98696 8.47142 2.86193C8.3464 2.73691 8.17683 2.66667 8.00002 2.66667C7.82321 2.66667 7.65364 2.73691 7.52862 2.86193C7.40359 2.98696 7.33335 3.15653 7.33335 3.33334V7.33334H3.33335C3.15654 7.33334 2.98697 7.40358 2.86195 7.5286C2.73693 7.65362 2.66669 7.82319 2.66669 8C2.66669 8.17682 2.73693 8.34639 2.86195 8.47141C2.98697 8.59643 3.15654 8.66667 3.33335 8.66667H7.33335V12.6667C7.33335 12.8435 7.40359 13.0131 7.52862 13.1381C7.65364 13.2631 7.82321 13.3333 8.00002 13.3333C8.17683 13.3333 8.3464 13.2631 8.47142 13.1381C8.59645 13.0131 8.66669 12.8435 8.66669 12.6667V8.66667H12.6667C12.8435 8.66667 13.0131 8.59643 13.1381 8.47141C13.2631 8.34639 13.3334 8.17682 13.3334 8C13.3334 7.82319 13.2631 7.65362 13.1381 7.5286C13.0131 7.40358 12.8435 7.33334 12.6667 7.33334Z" fill="#0061FF"/>
</svg>
